<svg width="158" height="39" viewBox="0 0 158 39" fill="none" xmlns="http://www.w3.org/2000/svg">
<path fill-rule="evenodd" clip-rule="evenodd" d="M18.5 0C22.3567 0 26.1269 1.14366 29.3336 3.28634C32.5404 5.42903 35.0397 8.47451 36.5157 12.0377C37.9916 15.6008 38.3777 19.5216 37.6253 23.3043C36.8729 27.0869 35.0157 30.5615 32.2886 33.2886C29.5615 36.0157 26.0869 37.8729 22.3043 38.6253C18.5216 39.3777 14.6008 38.9916 11.0377 37.5157C7.47451 36.0397 4.42903 33.5404 2.28634 30.3336C0.143655 27.1269 -1 23.3567 -1 19.5C-1 14.3283 1.05446 9.36838 4.71142 5.71142C8.36838 2.05446 13.3283 0 18.5 0Z" fill="#3C7AC0"/>
<path fill-rule="evenodd" clip-rule="evenodd" d="M24.285 19.285C26.462 18.685 28.185 19.4 29.974 20.403C30.0379 20.4385 30.11 20.4567 30.1832 20.4558C30.2563 20.4549 30.3279 20.435 30.3909 20.3979C30.454 20.3608 30.5062 20.3079 30.5425 20.2445C30.5789 20.181 30.598 20.1091 30.598 20.036V16.312C30.5982 16.2342 30.5767 16.1579 30.5361 16.0915C30.4955 16.0251 30.4373 15.9713 30.368 15.936C29.0773 15.245 27.661 14.8202 26.203 14.687C26.0981 14.6786 26.0001 14.631 25.9289 14.5534C25.8577 14.4759 25.8184 14.3743 25.819 14.269V10.041C25.819 9.92959 25.7748 9.82281 25.696 9.74404C25.6172 9.66528 25.5104 9.621 25.399 9.621H21.152C21.0406 9.621 20.9338 9.66528 20.855 9.74404C20.7763 9.82281 20.732 9.92959 20.732 10.041V15.675C20.7321 15.7531 20.7104 15.8295 20.6694 15.896C20.6285 15.9624 20.5698 16.0161 20.5 16.051C17.8873 17.4571 15.1809 18.6817 12.4 19.716C10.223 20.316 8.50003 19.601 6.71003 18.598C6.64618 18.5624 6.57408 18.5441 6.50098 18.545C6.42789 18.5459 6.35632 18.5659 6.29334 18.603C6.23036 18.6401 6.17817 18.693 6.14197 18.7565C6.10578 18.82 6.0868 18.8919 6.08698 18.965V22.689C6.08683 22.7668 6.10827 22.8431 6.14887 22.9095C6.18947 22.9759 6.24768 23.0297 6.31702 23.065C7.60771 23.7561 9.02404 24.1807 10.482 24.314C10.587 24.3223 10.6849 24.3701 10.7561 24.4476C10.8273 24.5251 10.8666 24.6267 10.866 24.732V28.961C10.866 29.0724 10.9103 29.1792 10.989 29.258C11.0678 29.3367 11.1746 29.381 11.286 29.381H15.533C15.6444 29.381 15.7512 29.3367 15.83 29.258C15.9087 29.1792 15.953 29.0724 15.953 28.961V23.327C15.9529 23.249 15.9746 23.1725 16.0156 23.106C16.0565 23.0396 16.1152 22.9859 16.185 22.951C18.7977 21.5445 21.504 20.3196 24.285 19.285ZM15.953 9.621V15.939C15.9533 16.0173 15.9314 16.0941 15.89 16.1606C15.8486 16.2271 15.7894 16.2807 15.719 16.315C14.458 16.929 12.692 17.997 11.319 18.115C11.2612 18.1196 11.203 18.1121 11.1483 18.093C11.0935 18.074 11.0433 18.0437 11.0008 18.0042C10.9583 17.9648 10.9245 17.9169 10.9014 17.8637C10.8784 17.8104 10.8667 17.753 10.867 17.695V10.041C10.867 9.92959 10.9112 9.82281 10.99 9.74404C11.0688 9.66528 11.1756 9.621 11.287 9.621H15.953ZM20.732 28.959V23.059C20.7318 22.9807 20.7536 22.9039 20.795 22.8374C20.8364 22.7709 20.8956 22.7174 20.966 22.683C22.247 22.06 23.997 21 25.366 20.883C25.4237 20.8786 25.4818 20.8862 25.5364 20.9053C25.5911 20.9244 25.6412 20.9547 25.6835 20.9942C25.7259 21.0336 25.7597 21.0814 25.7827 21.1346C25.8056 21.1878 25.8173 21.2451 25.817 21.303V28.961C25.817 29.0724 25.7727 29.1792 25.694 29.258C25.6152 29.3367 25.5084 29.381 25.397 29.381H21.15C21.0949 29.3807 21.0403 29.3696 20.9894 29.3483C20.9386 29.3269 20.8924 29.2957 20.8536 29.2566C20.8148 29.2174 20.7841 29.171 20.7632 29.1199C20.7423 29.0688 20.7317 29.0142 20.732 28.959Z" fill="white"/>
<path fill-rule="evenodd" clip-rule="evenodd" d="M27.145 23.344C27.6452 23.344 28.1248 23.5427 28.4785 23.8964C28.8322 24.2501 29.031 24.7298 29.031 25.23H30.9131C30.9131 24.7352 30.8156 24.2453 30.6262 23.7881C30.4369 23.3309 30.1592 22.9155 29.8093 22.5656C29.4595 22.2157 29.0441 21.9382 28.5869 21.7488C28.1298 21.5594 27.6399 21.462 27.145 21.462V23.344Z" fill="#73D9FF"/>
<path fill-rule="evenodd" clip-rule="evenodd" d="M30.5879 27.497C30.0877 27.497 29.6081 27.2984 29.2544 26.9447C28.9007 26.591 28.7019 26.1112 28.7019 25.611H26.8211C26.8211 26.6101 27.2179 27.5684 27.9244 28.275C28.6308 28.9816 29.5888 29.3788 30.5879 29.379V27.497Z" fill="#73D9FF"/>
<path d="M55.3995 17.1875C55.2802 16.7727 55.1126 16.4062 54.8967 16.0881C54.6808 15.7642 54.4165 15.4915 54.104 15.2699C53.7972 15.0426 53.445 14.8693 53.0472 14.75C52.6552 14.6307 52.2205 14.571 51.7433 14.571C50.8512 14.571 50.0671 14.7926 49.391 15.2358C48.7205 15.679 48.1978 16.3239 47.8228 17.1705C47.4478 18.0114 47.2603 19.0398 47.2603 20.2557C47.2603 21.4716 47.445 22.5057 47.8143 23.358C48.1836 24.2102 48.7063 24.8608 49.3825 25.3097C50.0586 25.7528 50.8569 25.9744 51.7773 25.9744C52.6126 25.9744 53.3256 25.8267 53.9165 25.5312C54.5131 25.2301 54.9677 24.8068 55.2802 24.2614C55.5984 23.7159 55.7575 23.071 55.7575 22.3267L56.5075 22.4375H52.0075V19.6591H59.3114V21.858C59.3114 23.392 58.9876 24.7102 58.3398 25.8125C57.6921 26.9091 56.8001 27.7557 55.6637 28.3523C54.5273 28.9432 53.2262 29.2386 51.7603 29.2386C50.1239 29.2386 48.6864 28.8778 47.4478 28.1562C46.2092 27.429 45.2433 26.3977 44.5501 25.0625C43.8626 23.7216 43.5188 22.1307 43.5188 20.2898C43.5188 18.875 43.7234 17.6136 44.1325 16.5057C44.5472 15.392 45.1268 14.4489 45.8711 13.6761C46.6154 12.9034 47.4819 12.3153 48.4705 11.9119C49.4592 11.5085 50.5302 11.3068 51.6836 11.3068C52.6722 11.3068 53.5927 11.4517 54.445 11.7415C55.2972 12.0256 56.0529 12.429 56.712 12.9517C57.3768 13.4744 57.9194 14.0966 58.3398 14.8182C58.7603 15.5341 59.0302 16.3239 59.1495 17.1875H55.3995ZM67.9812 29.2557C66.6346 29.2557 65.4755 28.983 64.5039 28.4375C63.538 27.8864 62.7937 27.108 62.271 26.1023C61.7482 25.0909 61.4869 23.8949 61.4869 22.5142C61.4869 21.1676 61.7482 19.9858 62.271 18.9688C62.7937 17.9517 63.5295 17.1591 64.4783 16.5909C65.4329 16.0227 66.5522 15.7386 67.8363 15.7386C68.6999 15.7386 69.5039 15.8778 70.2482 16.1562C70.9982 16.429 71.6516 16.8409 72.2085 17.392C72.771 17.9432 73.2085 18.6364 73.521 19.4716C73.8335 20.3011 73.9897 21.2727 73.9897 22.3864V23.3835H62.9357V21.1335H70.5721C70.5721 20.6108 70.4585 20.1477 70.2312 19.7443C70.0039 19.3409 69.6886 19.0256 69.2852 18.7983C68.8874 18.5653 68.4244 18.4489 67.896 18.4489C67.3448 18.4489 66.8562 18.5767 66.43 18.8324C66.0096 19.0824 65.68 19.4205 65.4414 19.8466C65.2028 20.267 65.0806 20.7358 65.0749 21.2528V23.392C65.0749 24.0398 65.1942 24.5994 65.4329 25.071C65.6772 25.5426 66.021 25.9062 66.4641 26.1619C66.9073 26.4176 67.4329 26.5455 68.0408 26.5455C68.4442 26.5455 68.8136 26.4886 69.1488 26.375C69.484 26.2614 69.771 26.0909 70.0096 25.8636C70.2482 25.6364 70.43 25.358 70.555 25.0284L73.913 25.25C73.7425 26.0568 73.3931 26.7614 72.8647 27.3636C72.342 27.9602 71.6658 28.4261 70.8363 28.7614C70.0124 29.0909 69.0607 29.2557 67.9812 29.2557ZM82.2738 29.2557C80.9499 29.2557 79.805 28.9744 78.8391 28.4119C77.8789 27.8437 77.1374 27.054 76.6147 26.0426C76.092 25.0256 75.8306 23.8466 75.8306 22.5057C75.8306 21.1534 76.092 19.9716 76.6147 18.9602C77.1374 17.9432 77.8789 17.1534 78.8391 16.5909C79.805 16.0227 80.9499 15.7386 82.2738 15.7386C83.5977 15.7386 84.7397 16.0227 85.6999 16.5909C86.6658 17.1534 87.4102 17.9432 87.9329 18.9602C88.4556 19.9716 88.717 21.1534 88.717 22.5057C88.717 23.8466 88.4556 25.0256 87.9329 26.0426C87.4102 27.054 86.6658 27.8437 85.6999 28.4119C84.7397 28.9744 83.5977 29.2557 82.2738 29.2557ZM82.2908 26.4432C82.8931 26.4432 83.396 26.2727 83.7994 25.9318C84.2028 25.5852 84.5067 25.1136 84.7113 24.517C84.9215 23.9205 85.0266 23.2415 85.0266 22.4801C85.0266 21.7188 84.9215 21.0398 84.7113 20.4432C84.5067 19.8466 84.2028 19.375 83.7994 19.0284C83.396 18.6818 82.8931 18.5085 82.2908 18.5085C81.6829 18.5085 81.1715 18.6818 80.7567 19.0284C80.3477 19.375 80.038 19.8466 79.8278 20.4432C79.6232 21.0398 79.521 21.7188 79.521 22.4801C79.521 23.2415 79.6232 23.9205 79.8278 24.517C80.038 25.1136 80.3477 25.5852 80.7567 25.9318C81.1715 26.2727 81.6829 26.4432 82.2908 26.4432ZM96.7006 29V11.5455H108.257V14.5881H100.391V18.7472H107.49V21.7898H100.391V29H96.7006ZM118.246 23.4261V15.9091H121.877V29H118.391V26.6222H118.255C117.959 27.3892 117.468 28.0057 116.78 28.4716C116.098 28.9375 115.266 29.1705 114.283 29.1705C113.408 29.1705 112.638 28.9716 111.973 28.5739C111.309 28.1761 110.789 27.6108 110.414 26.8778C110.044 26.1449 109.857 25.267 109.851 24.2443V15.9091H113.482V23.5966C113.488 24.3693 113.695 24.9801 114.104 25.429C114.513 25.8778 115.061 26.1023 115.749 26.1023C116.186 26.1023 116.596 26.0028 116.976 25.804C117.357 25.5994 117.664 25.2983 117.897 24.9006C118.135 24.5028 118.252 24.0114 118.246 23.4261ZM130.747 29.2557C129.4 29.2557 128.241 28.983 127.27 28.4375C126.304 27.8864 125.559 27.108 125.037 26.1023C124.514 25.0909 124.252 23.8949 124.252 22.5142C124.252 21.1676 124.514 19.9858 125.037 18.9688C125.559 17.9517 126.295 17.1591 127.244 16.5909C128.199 16.0227 129.318 15.7386 130.602 15.7386C131.466 15.7386 132.27 15.8778 133.014 16.1562C133.764 16.429 134.417 16.8409 134.974 17.392C135.537 17.9432 135.974 18.6364 136.287 19.4716C136.599 20.3011 136.755 21.2727 136.755 22.3864V23.3835H125.701V21.1335H133.338C133.338 20.6108 133.224 20.1477 132.997 19.7443C132.77 19.3409 132.454 19.0256 132.051 18.7983C131.653 18.5653 131.19 18.4489 130.662 18.4489C130.11 18.4489 129.622 18.5767 129.196 18.8324C128.775 19.0824 128.446 19.4205 128.207 19.8466C127.968 20.267 127.846 20.7358 127.841 21.2528V23.392C127.841 24.0398 127.96 24.5994 128.199 25.071C128.443 25.5426 128.787 25.9062 129.23 26.1619C129.673 26.4176 130.199 26.5455 130.806 26.5455C131.21 26.5455 131.579 26.4886 131.914 26.375C132.25 26.2614 132.537 26.0909 132.775 25.8636C133.014 25.6364 133.196 25.358 133.321 25.0284L136.679 25.25C136.508 26.0568 136.159 26.7614 135.63 27.3636C135.108 27.9602 134.431 28.4261 133.602 28.7614C132.778 29.0909 131.826 29.2557 130.747 29.2557ZM142.755 11.5455V29H139.125V11.5455H142.755ZM156.556 19.642L153.232 19.8466C153.175 19.5625 153.053 19.3068 152.865 19.0795C152.678 18.8466 152.431 18.6619 152.124 18.5256C151.823 18.3835 151.462 18.3125 151.042 18.3125C150.479 18.3125 150.005 18.4318 149.618 18.6705C149.232 18.9034 149.039 19.2159 149.039 19.608C149.039 19.9205 149.164 20.1847 149.414 20.4006C149.664 20.6165 150.093 20.7898 150.701 20.9205L153.07 21.3977C154.343 21.6591 155.292 22.0795 155.917 22.6591C156.542 23.2386 156.854 24 156.854 24.9432C156.854 25.8011 156.601 26.554 156.096 27.2017C155.596 27.8494 154.908 28.3551 154.033 28.7188C153.164 29.0767 152.161 29.2557 151.025 29.2557C149.292 29.2557 147.911 28.8949 146.882 28.1733C145.86 27.446 145.26 26.4574 145.084 25.2074L148.655 25.0199C148.763 25.5483 149.025 25.9517 149.439 26.2301C149.854 26.5028 150.385 26.6392 151.033 26.6392C151.669 26.6392 152.181 26.517 152.567 26.2727C152.959 26.0227 153.158 25.7017 153.164 25.3097C153.158 24.9801 153.019 24.7102 152.746 24.5C152.473 24.2841 152.053 24.1193 151.485 24.0057L149.218 23.554C147.939 23.2983 146.988 22.8551 146.363 22.2244C145.743 21.5937 145.434 20.7898 145.434 19.8125C145.434 18.9716 145.661 18.2472 146.115 17.6392C146.576 17.0312 147.221 16.5625 148.05 16.233C148.885 15.9034 149.863 15.7386 150.982 15.7386C152.635 15.7386 153.936 16.0881 154.885 16.7869C155.84 17.4858 156.397 18.4375 156.556 19.642Z" fill="white"/>
</svg>
