<svg width="161" height="39" viewBox="0 0 161 39" fill="none" xmlns="http://www.w3.org/2000/svg">
<path d="M57.5309 15.5875C57.4116 15.1727 57.244 14.8063 57.0281 14.4881C56.8122 14.1642 56.548 13.8915 56.2355 13.6699C55.9286 13.4426 55.5764 13.2693 55.1786 13.15C54.7866 13.0307 54.3519 12.971 53.8747 12.971C52.9826 12.971 52.1985 13.1926 51.5224 13.6358C50.8519 14.079 50.3292 14.7239 49.9542 15.5705C49.5792 16.4114 49.3917 17.4398 49.3917 18.6557C49.3917 19.8716 49.5764 20.9057 49.9457 21.758C50.315 22.6102 50.8377 23.2608 51.5139 23.7097C52.19 24.1528 52.9883 24.3744 53.9088 24.3744C54.744 24.3744 55.457 24.2267 56.048 23.9313C56.6445 23.6301 57.0991 23.2068 57.4116 22.6614C57.7298 22.1159 57.8889 21.471 57.8889 20.7267L58.6389 20.8375H54.1389V18.0591H61.4428V20.258C61.4428 21.792 61.119 23.1102 60.4713 24.2125C59.8235 25.3091 58.9315 26.1557 57.7951 26.7523C56.6588 27.3432 55.3576 27.6386 53.8917 27.6386C52.2553 27.6386 50.8178 27.2778 49.5792 26.5563C48.3406 25.829 47.3747 24.7977 46.6815 23.4625C45.994 22.1216 45.6502 20.5307 45.6502 18.6898C45.6502 17.275 45.8548 16.0136 46.2639 14.9057C46.6786 13.792 47.2582 12.8489 48.0025 12.0761C48.7468 11.3034 49.6133 10.7153 50.6019 10.3119C51.5906 9.90852 52.6616 9.70682 53.815 9.70682C54.8036 9.70682 55.7241 9.85171 56.5764 10.1415C57.4286 10.4256 58.1843 10.829 58.8434 11.3517C59.5082 11.8744 60.0508 12.4966 60.4713 13.2182C60.8917 13.9341 61.1616 14.7239 61.2809 15.5875H57.5309ZM70.1126 27.6557C68.766 27.6557 67.6069 27.383 66.6353 26.8375C65.6694 26.2864 64.9251 25.508 64.4024 24.5023C63.8796 23.4909 63.6183 22.2949 63.6183 20.9142C63.6183 19.5676 63.8796 18.3858 64.4024 17.3688C64.9251 16.3517 65.6609 15.5591 66.6097 14.9909C67.5643 14.4227 68.6836 14.1386 69.9677 14.1386C70.8313 14.1386 71.6353 14.2778 72.3796 14.5563C73.1296 14.829 73.783 15.2409 74.3399 15.792C74.9024 16.3432 75.3399 17.0364 75.6524 17.8716C75.9649 18.7011 76.1211 19.6727 76.1211 20.7864V21.7835H65.0671V19.5335H72.7035C72.7035 19.0108 72.5899 18.5477 72.3626 18.1443C72.1353 17.7409 71.82 17.4256 71.4166 17.1983C71.0188 16.9653 70.5558 16.8489 70.0274 16.8489C69.4762 16.8489 68.9876 16.9767 68.5615 17.2324C68.141 17.4824 67.8115 17.8205 67.5728 18.2466C67.3342 18.667 67.212 19.1358 67.2063 19.6528V21.792C67.2063 22.4398 67.3257 22.9994 67.5643 23.471C67.8086 23.9426 68.1524 24.3063 68.5955 24.5619C69.0387 24.8176 69.5643 24.9455 70.1722 24.9455C70.5757 24.9455 70.945 24.8886 71.2802 24.775C71.6154 24.6614 71.9024 24.4909 72.141 24.2636C72.3796 24.0364 72.5615 23.758 72.6865 23.4284L76.0444 23.65C75.874 24.4568 75.5245 25.1614 74.9961 25.7636C74.4734 26.3602 73.7972 26.8261 72.9677 27.1614C72.1438 27.4909 71.1921 27.6557 70.1126 27.6557ZM84.4052 27.6557C83.0813 27.6557 81.9365 27.3744 80.9705 26.8119C80.0103 26.2438 79.2688 25.454 78.7461 24.4426C78.2234 23.4256 77.962 22.2466 77.962 20.9057C77.962 19.5534 78.2234 18.3716 78.7461 17.3602C79.2688 16.3432 80.0103 15.5534 80.9705 14.9909C81.9365 14.4227 83.0813 14.1386 84.4052 14.1386C85.7291 14.1386 86.8711 14.4227 87.8313 14.9909C88.7972 15.5534 89.5416 16.3432 90.0643 17.3602C90.587 18.3716 90.8484 19.5534 90.8484 20.9057C90.8484 22.2466 90.587 23.4256 90.0643 24.4426C89.5416 25.454 88.7972 26.2438 87.8313 26.8119C86.8711 27.3744 85.7291 27.6557 84.4052 27.6557ZM84.4222 24.8432C85.0245 24.8432 85.5274 24.6727 85.9308 24.3318C86.3342 23.9852 86.6382 23.5136 86.8427 22.917C87.0529 22.3205 87.158 21.6415 87.158 20.8801C87.158 20.1188 87.0529 19.4398 86.8427 18.8432C86.6382 18.2466 86.3342 17.775 85.9308 17.4284C85.5274 17.0818 85.0245 16.9085 84.4222 16.9085C83.8143 16.9085 83.3029 17.0818 82.8882 17.4284C82.4791 17.775 82.1694 18.2466 81.9592 18.8432C81.7546 19.4398 81.6524 20.1188 81.6524 20.8801C81.6524 21.6415 81.7546 22.3205 81.9592 22.917C82.1694 23.5136 82.4791 23.9852 82.8882 24.3318C83.3029 24.6727 83.8143 24.8432 84.4222 24.8432ZM98.832 27.4V9.94546H110.389V12.9881H102.522V17.1472H109.622V20.1898H102.522V27.4H98.832ZM120.378 21.8261V14.3091H124.008V27.4H120.522V25.0222H120.386C120.091 25.7892 119.599 26.4057 118.912 26.8716C118.23 27.3375 117.397 27.5705 116.414 27.5705C115.539 27.5705 114.77 27.3716 114.105 26.9739C113.44 26.5761 112.92 26.0108 112.545 25.2778C112.176 24.5449 111.988 23.667 111.983 22.6443V14.3091H115.613V21.9966C115.619 22.7693 115.826 23.3801 116.235 23.829C116.645 24.2778 117.193 24.5023 117.88 24.5023C118.318 24.5023 118.727 24.4028 119.108 24.204C119.488 23.9994 119.795 23.6983 120.028 23.3006C120.267 22.9028 120.383 22.4114 120.378 21.8261ZM132.878 27.6557C131.532 27.6557 130.373 27.383 129.401 26.8375C128.435 26.2864 127.691 25.508 127.168 24.5023C126.645 23.4909 126.384 22.2949 126.384 20.9142C126.384 19.5676 126.645 18.3858 127.168 17.3688C127.691 16.3517 128.427 15.5591 129.375 14.9909C130.33 14.4227 131.449 14.1386 132.733 14.1386C133.597 14.1386 134.401 14.2778 135.145 14.5563C135.895 14.829 136.549 15.2409 137.105 15.792C137.668 16.3432 138.105 17.0364 138.418 17.8716C138.73 18.7011 138.887 19.6727 138.887 20.7864V21.7835H127.833V19.5335H135.469C135.469 19.0108 135.355 18.5477 135.128 18.1443C134.901 17.7409 134.586 17.4256 134.182 17.1983C133.784 16.9653 133.321 16.8489 132.793 16.8489C132.242 16.8489 131.753 16.9767 131.327 17.2324C130.907 17.4824 130.577 17.8205 130.338 18.2466C130.1 18.667 129.978 19.1358 129.972 19.6528V21.792C129.972 22.4398 130.091 22.9994 130.33 23.471C130.574 23.9426 130.918 24.3063 131.361 24.5619C131.804 24.8176 132.33 24.9455 132.938 24.9455C133.341 24.9455 133.711 24.8886 134.046 24.775C134.381 24.6614 134.668 24.4909 134.907 24.2636C135.145 24.0364 135.327 23.758 135.452 23.4284L138.81 23.65C138.64 24.4568 138.29 25.1614 137.762 25.7636C137.239 26.3602 136.563 26.8261 135.733 27.1614C134.909 27.4909 133.958 27.6557 132.878 27.6557ZM144.887 9.94546V27.4H141.256V9.94546H144.887ZM158.687 18.042L155.363 18.2466C155.306 17.9625 155.184 17.7068 154.997 17.4795C154.809 17.2466 154.562 17.0619 154.255 16.9256C153.954 16.7835 153.593 16.7125 153.173 16.7125C152.61 16.7125 152.136 16.8318 151.75 17.0705C151.363 17.3034 151.17 17.6159 151.17 18.008C151.17 18.3205 151.295 18.5847 151.545 18.8006C151.795 19.0165 152.224 19.1898 152.832 19.3205L155.201 19.7977C156.474 20.0591 157.423 20.4795 158.048 21.0591C158.673 21.6386 158.985 22.4 158.985 23.3432C158.985 24.2011 158.733 24.954 158.227 25.6017C157.727 26.2494 157.039 26.7551 156.164 27.1188C155.295 27.4767 154.292 27.6557 153.156 27.6557C151.423 27.6557 150.042 27.2949 149.014 26.5733C147.991 25.846 147.392 24.8574 147.216 23.6074L150.787 23.4199C150.895 23.9483 151.156 24.3517 151.571 24.6301C151.985 24.9028 152.517 25.0392 153.164 25.0392C153.801 25.0392 154.312 24.917 154.699 24.6727C155.091 24.4227 155.289 24.1017 155.295 23.7097C155.289 23.3801 155.15 23.1102 154.878 22.9C154.605 22.6841 154.184 22.5193 153.616 22.4057L151.349 21.954C150.071 21.6983 149.119 21.2551 148.494 20.6244C147.875 19.9938 147.565 19.1898 147.565 18.2125C147.565 17.3716 147.792 16.6472 148.247 16.0392C148.707 15.4313 149.352 14.9625 150.181 14.633C151.017 14.3034 151.994 14.1386 153.113 14.1386C154.767 14.1386 156.068 14.4881 157.017 15.1869C157.971 15.8858 158.528 16.8375 158.687 18.042Z" fill="black"/>
<path fill-rule="evenodd" clip-rule="evenodd" d="M19.5 0C23.3567 0 27.1269 1.14366 30.3336 3.28634C33.5404 5.42903 36.0397 8.47451 37.5157 12.0377C38.9916 15.6008 39.3777 19.5216 38.6253 23.3043C37.8729 27.0869 36.0157 30.5615 33.2886 33.2886C30.5615 36.0157 27.0869 37.8729 23.3043 38.6253C19.5216 39.3777 15.6008 38.9916 12.0377 37.5157C8.47451 36.0397 5.42903 33.5404 3.28634 30.3336C1.14366 27.1269 0 23.3567 0 19.5C0 14.3283 2.05446 9.36838 5.71142 5.71142C9.36838 2.05446 14.3283 0 19.5 0Z" fill="#3C7AC0"/>
<path fill-rule="evenodd" clip-rule="evenodd" d="M25.287 19.281C27.467 18.681 29.187 19.401 30.977 20.401C31.0403 20.4353 31.1113 20.4527 31.1833 20.4517C31.2553 20.4506 31.3258 20.4311 31.388 20.3949C31.4502 20.3588 31.5022 20.3072 31.5388 20.2453C31.5754 20.1833 31.5954 20.1129 31.597 20.041V16.311C31.5961 16.2342 31.5742 16.1591 31.5337 16.0938C31.4931 16.0286 31.4355 15.9757 31.367 15.941C30.0779 15.2502 28.6633 14.8252 27.207 14.691C27.1009 14.6834 27.0016 14.6358 26.9292 14.5579C26.8568 14.4799 26.8167 14.3774 26.817 14.271V10.041C26.817 9.92959 26.7727 9.82281 26.694 9.74404C26.6152 9.66528 26.5084 9.62099 26.397 9.62099H22.157C22.0456 9.62099 21.9388 9.66528 21.86 9.74404C21.7812 9.82281 21.737 9.92959 21.737 10.041V15.671C21.7371 15.7506 21.7146 15.8285 21.6721 15.8958C21.6296 15.963 21.5689 16.0169 21.497 16.051C18.8842 17.4554 16.1778 18.6783 13.397 19.711C11.227 20.311 9.49697 19.601 7.70697 18.601C7.64369 18.5667 7.5727 18.5493 7.50073 18.5503C7.42876 18.5514 7.35827 18.5709 7.29602 18.6071C7.23377 18.6432 7.18186 18.6948 7.14526 18.7567C7.10867 18.8187 7.08856 18.8891 7.08698 18.961V22.691C7.08781 22.7678 7.10972 22.8429 7.15027 22.9082C7.19082 22.9734 7.24851 23.0263 7.31702 23.061C8.60914 23.7531 10.0272 24.1782 11.487 24.311C11.5913 24.321 11.6881 24.3696 11.7584 24.4473C11.8287 24.525 11.8675 24.6262 11.867 24.731V28.961C11.867 29.0724 11.9112 29.1792 11.99 29.258C12.0688 29.3367 12.1756 29.381 12.287 29.381H16.537C16.6484 29.381 16.7552 29.3367 16.834 29.258C16.9127 29.1792 16.957 29.0724 16.957 28.961V23.331C16.956 23.2525 16.977 23.1753 17.0176 23.1081C17.0583 23.0409 17.117 22.9865 17.187 22.951C19.7996 21.5432 22.5059 20.317 25.287 19.281ZM16.957 9.62099V15.941C16.9552 16.0189 16.9318 16.0947 16.8895 16.1601C16.8471 16.2254 16.7874 16.2776 16.717 16.311C15.457 16.931 13.687 18.001 12.317 18.111C12.2594 18.1151 12.2015 18.1073 12.147 18.0881C12.0926 18.0688 12.0427 18.0385 12.0004 17.9991C11.9582 17.9597 11.9245 17.912 11.9016 17.859C11.8786 17.806 11.8669 17.7488 11.867 17.691V10.041C11.867 9.92959 11.9112 9.82281 11.99 9.74404C12.0688 9.66528 12.1756 9.62099 12.287 9.62099H16.957ZM21.737 28.961V23.061C21.736 22.9825 21.757 22.9053 21.7977 22.8381C21.8383 22.7709 21.897 22.7165 21.967 22.681C23.247 22.061 24.997 21.001 26.367 20.881C26.4246 20.8769 26.4825 20.8847 26.5369 20.904C26.5914 20.9232 26.6414 20.9535 26.6836 20.9929C26.7258 21.0323 26.7595 21.08 26.7824 21.133C26.8054 21.186 26.8172 21.2432 26.817 21.301V28.961C26.817 29.0724 26.7727 29.1792 26.694 29.258C26.6152 29.3367 26.5084 29.381 26.397 29.381H22.147C22.0356 29.381 21.9288 29.3367 21.85 29.258C21.7713 29.1792 21.727 29.0724 21.727 28.961H21.737Z" fill="white"/>
<path fill-rule="evenodd" clip-rule="evenodd" d="M28.14 23.3421C28.6413 23.3421 29.122 23.5411 29.4765 23.8955C29.8309 24.25 30.0299 24.7307 30.0299 25.2319H31.91C31.91 24.2321 31.5128 23.2732 30.8058 22.5662C30.0988 21.8592 29.1399 21.462 28.14 21.462V23.3421Z" fill="#73D9FF"/>
<path fill-rule="evenodd" clip-rule="evenodd" d="M31.5899 27.5021C31.0886 27.5021 30.6079 27.3028 30.2534 26.9484C29.899 26.594 29.7 26.1132 29.7 25.612H27.8201C27.8201 26.6118 28.2171 27.5707 28.9241 28.2777C29.6311 28.9848 30.59 29.382 31.5899 29.382V27.5021Z" fill="#73D9FF"/>
</svg>
